<?xml version="1.0" encoding="UTF-8"?>
<svg id="Layer_2" data-name="Layer 2" xmlns="http://www.w3.org/2000/svg" viewBox="0 0 558.38 105.77">
  <defs>
    <style>
      .cls-1 {
        fill: #010101;
      }
    </style>
  </defs>
  <g id="Layer_1-2" data-name="Layer 1">
    <g>
      <path class="cls-1" d="M66.95,74.07c.9-2.42,1.84-5.02,2.83-7.8.98-2.78,1.94-5.66,2.89-8.63.94-2.97,1.85-5.98,2.73-9.03.88-3.05,1.67-6.05,2.36-9l-5.96-19.53c-.41-1.35-.38-2.53.09-3.53.47-1,1.22-1.84,2.24-2.52,1.02-.68,2.24-1.18,3.65-1.5,1.41-.33,2.9-.49,4.45-.49,1.35,0,2.56.07,3.62.22,1.06.14,2,.4,2.8.77.8.37,1.46.89,2,1.57.53.68.96,1.55,1.29,2.61l17.63,56.75c.94-2.54,1.92-5.28,2.95-8.23,1.02-2.95,2.03-5.98,3.01-9.09.98-3.11,1.92-6.27,2.83-9.46.9-3.19,1.69-6.33,2.36-9.4.68-3.07,1.21-6.01,1.6-8.81.39-2.8.58-5.37.58-7.71,0-2.7-.18-4.95-.55-6.76-.37-1.8-.79-3.31-1.26-4.51-.47-1.21-.89-2.2-1.26-2.98-.37-.78-.55-1.49-.55-2.15,0-.86.22-1.59.68-2.18.45-.59,1.02-1.1,1.72-1.5s1.45-.71,2.27-.89c.82-.18,1.6-.28,2.33-.28,1.64,0,3.03.25,4.18.74,1.15.49,1.94,1.33,2.4,2.52.2.61.37,1.26.49,1.93.12.68.22,1.33.28,1.97.06.63.09,1.23.09,1.78v1.32c0,1.72-.28,4.07-.83,7.06-.55,2.99-1.31,6.36-2.27,10.1-.96,3.75-2.06,7.77-3.29,12.07-1.23,4.3-2.51,8.63-3.84,12.99-1.33,4.36-2.67,8.63-4.02,12.81-1.35,4.18-2.63,8.04-3.84,11.58-1.21,3.54-2.27,6.65-3.19,9.34-.92,2.68-1.63,4.68-2.12,5.99-.33.98-.77,1.76-1.32,2.33-.55.57-1.19,1.01-1.9,1.32-.72.31-1.5.5-2.33.58-.84.08-1.71.12-2.61.12-1.64,0-2.98-.16-4.02-.49-1.04-.33-1.87-.74-2.49-1.23s-1.07-1.02-1.35-1.6c-.29-.57-.51-1.08-.68-1.54l-12.22-40.17c-1.35,4.46-2.72,8.86-4.11,13.17-1.39,4.32-2.71,8.3-3.96,11.95-1.25,3.64-2.36,6.83-3.35,9.55-.98,2.72-1.74,4.72-2.27,5.99-.41.98-.91,1.76-1.5,2.33-.59.57-1.25,1.01-1.97,1.32-.72.31-1.48.5-2.3.58s-1.66.12-2.52.12c-1.64,0-2.98-.16-4.02-.49-1.04-.33-1.87-.74-2.49-1.23s-1.07-1.02-1.38-1.6c-.31-.57-.54-1.08-.71-1.54L28.93,18.61c-.41-1.39-.85-2.57-1.32-3.53-.47-.96-1.04-1.75-1.72-2.36s-1.5-1.06-2.46-1.35c-.96-.29-2.14-.43-3.53-.43-1.15,0-2.48.28-3.99.83-1.52.55-2.96,1.37-4.33,2.46-1.37,1.09-2.53,2.44-3.47,4.05-.94,1.62-1.41,3.49-1.41,5.62,0,1.31.17,2.36.52,3.13.35.78.75,1.36,1.2,1.75.45.39.91.64,1.38.74.47.1.81.15,1.01.15,1.02,0,1.86-.17,2.52-.52.65-.35,1.25-.72,1.78-1.11.53-.39,1.03-.76,1.51-1.11.47-.35,1.01-.52,1.63-.52.49,0,1.01.11,1.57.34.55.23,1.06.58,1.54,1.08.47.49.87,1.14,1.2,1.93.33.8.49,1.77.49,2.92,0,1.64-.32,3.05-.95,4.24-.63,1.19-1.45,2.18-2.46,2.98-1,.8-2.15,1.39-3.44,1.78-1.29.39-2.57.58-3.84.58-1.97,0-3.72-.35-5.25-1.04-1.54-.7-2.83-1.64-3.87-2.83-1.04-1.19-1.84-2.57-2.4-4.15-.55-1.58-.83-3.27-.83-5.07,0-4.26.82-7.97,2.46-11.15,1.64-3.17,3.81-5.83,6.51-7.95,2.7-2.13,5.77-3.72,9.21-4.76s6.98-1.57,10.63-1.57c4.09,0,7.45.62,10.07,1.87,2.62,1.25,4.74,2.86,6.36,4.82,1.62,1.97,2.9,4.17,3.84,6.6.94,2.44,1.78,4.84,2.52,7.22l15.36,49.81Z"/>
      <path class="cls-1" d="M159.76,90.04c0,.53-.09,1.18-.28,1.93-.18.76-.61,1.47-1.29,2.15s-1.65,1.25-2.92,1.72c-1.27.47-2.99.71-5.16.71s-3.87-.26-5.1-.77-2.15-1.12-2.76-1.81-.99-1.41-1.14-2.15-.21-1.33-.21-1.78v-47.42c0-1.19-.28-2.22-.83-3.1-.55-.88-1.48-1.32-2.8-1.32-.7,0-1.29.12-1.78.37-.49.25-1.02.59-1.6,1.04l-1.29-1.54c.94-.78,2-1.54,3.16-2.3,1.17-.76,2.43-1.42,3.78-2,1.35-.57,2.8-1.04,4.36-1.41,1.56-.37,3.19-.55,4.91-.55,2.66,0,4.73.36,6.2,1.07,1.47.72,2.56,1.6,3.26,2.64.7,1.04,1.12,2.16,1.26,3.35.14,1.19.21,2.23.21,3.13v48.03ZM139,17.81c0-1.15.26-2.24.77-3.29.51-1.04,1.23-1.95,2.15-2.73.92-.78,1.99-1.39,3.19-1.84,1.21-.45,2.53-.68,3.96-.68s2.69.23,3.9.68c1.21.45,2.26,1.07,3.16,1.84.9.78,1.61,1.69,2.12,2.73.51,1.04.77,2.14.77,3.29s-.26,2.29-.77,3.32c-.51,1.02-1.22,1.91-2.12,2.67-.9.76-1.96,1.36-3.16,1.81-1.21.45-2.51.68-3.9.68s-2.75-.22-3.96-.68c-1.21-.45-2.27-1.05-3.19-1.81-.92-.76-1.64-1.65-2.15-2.67-.51-1.02-.77-2.13-.77-3.32Z"/>
      <path class="cls-1" d="M194.95,36.73c-.94,0-1.83.12-2.67.37-.84.25-1.59.64-2.24,1.2-.66.55-1.17,1.25-1.54,2.09-.37.84-.55,1.83-.55,2.98,0,1.6.58,3.18,1.75,4.76,1.17,1.58,2.62,3.21,4.36,4.91,1.74,1.7,3.62,3.46,5.65,5.28,2.03,1.82,3.91,3.75,5.65,5.77,1.74,2.03,3.19,4.19,4.36,6.48,1.17,2.29,1.75,4.75,1.75,7.37,0,2.95-.5,5.57-1.51,7.86-1,2.29-2.44,4.24-4.3,5.84-1.86,1.6-4.12,2.82-6.76,3.65-2.64.84-5.58,1.26-8.81,1.26-2.83,0-5.38-.4-7.68-1.2-2.29-.8-4.33-1.78-6.11-2.95-1.78-1.17-3.31-2.4-4.58-3.72-1.27-1.31-2.25-2.5-2.95-3.56l2.15-1.54c.53.61,1.21,1.28,2.03,2s1.73,1.38,2.73,2c1,.61,2.08,1.12,3.22,1.5,1.15.39,2.31.58,3.5.58,2.95,0,5.36-.71,7.25-2.12,1.88-1.41,2.83-3.51,2.83-6.3,0-1.56-.51-3.16-1.54-4.82-1.02-1.66-2.31-3.37-3.87-5.13-1.56-1.76-3.24-3.58-5.04-5.47-1.8-1.88-3.48-3.83-5.04-5.84-1.56-2.01-2.85-4.07-3.87-6.2-1.02-2.13-1.54-4.34-1.54-6.63,0-2.58.52-4.83,1.57-6.76,1.04-1.92,2.44-3.52,4.18-4.79,1.74-1.27,3.73-2.22,5.96-2.86,2.23-.63,4.53-.95,6.91-.95,2.74,0,5.24.25,7.49.74,2.25.49,4.19,1.24,5.8,2.24,1.62,1,2.87,2.26,3.75,3.78.88,1.52,1.32,3.28,1.32,5.28,0,1.56-.51,2.91-1.54,4.05-1.02,1.15-2.46,1.72-4.3,1.72s-3.1-.38-4.02-1.14c-.92-.76-1.38-1.79-1.38-3.1,0-.86.21-1.54.64-2.03.43-.49.91-.89,1.44-1.2.53-.31,1.01-.57,1.44-.8.43-.22.64-.52.64-.89,0-1.15-.61-2.06-1.84-2.73-1.23-.68-2.81-1.01-4.73-1.01Z"/>
      <path class="cls-1" d="M240.65,43.49c1.51-2.17,3.23-4.12,5.16-5.84.78-.74,1.65-1.45,2.61-2.15.96-.7,1.99-1.32,3.07-1.87,1.08-.55,2.23-.99,3.44-1.32,1.21-.33,2.45-.49,3.72-.49,2.74,0,5.2.53,7.37,1.6,2.17,1.07,3.99,2.85,5.47,5.34,1.47,2.5,2.6,5.8,3.38,9.92.78,4.11,1.17,9.22,1.17,15.32s-.53,11.1-1.6,15.48c-1.07,4.38-2.46,8.11-4.18,11.18-1.72,3.07-3.67,5.58-5.84,7.52-2.17,1.94-4.36,3.47-6.57,4.58-2.21,1.11-4.34,1.87-6.39,2.3-2.05.43-3.81.66-5.28.71l-.61-2.52c1.84-.45,3.48-1.29,4.91-2.52,1.43-1.23,2.64-3.25,3.62-6.05.98-2.8,1.73-6.58,2.24-11.33.51-4.75.77-10.87.77-18.36,0-5.16-.24-9.28-.71-12.38-.47-3.09-1.09-5.45-1.84-7.06-.76-1.62-1.62-2.68-2.58-3.19-.96-.51-1.93-.77-2.92-.77-1.19,0-2.23.32-3.13.95-.9.64-1.69,1.36-2.36,2.18s-1.25,1.64-1.72,2.46c-.47.82-.87,1.43-1.2,1.84v41.03c0,.53-.08,1.18-.25,1.93-.16.76-.56,1.47-1.2,2.15-.64.68-1.58,1.25-2.83,1.72-1.25.47-2.96.71-5.13.71s-3.89-.26-5.16-.77c-1.27-.51-2.22-1.12-2.86-1.81-.63-.7-1.03-1.41-1.2-2.15-.16-.74-.25-1.33-.25-1.78V10.81c0-1.19-.28-2.22-.83-3.1-.55-.88-1.48-1.32-2.8-1.32-.7,0-1.3.11-1.81.34-.51.23-1.06.56-1.63,1.01l-1.23-1.47c.94-.78,1.99-1.54,3.13-2.3,1.15-.76,2.4-1.42,3.78-2,1.37-.57,2.84-1.04,4.39-1.41,1.56-.37,3.19-.55,4.91-.55,2.66,0,4.73.36,6.2,1.07,1.47.72,2.56,1.6,3.26,2.64.7,1.04,1.12,2.15,1.26,3.32.14,1.17.21,2.2.21,3.1v33.35Z"/>
      <path class="cls-1" d="M308.46,36.73c-.94,0-1.83.12-2.67.37s-1.59.64-2.24,1.2-1.17,1.25-1.54,2.09c-.37.84-.55,1.83-.55,2.98,0,1.6.58,3.18,1.75,4.76,1.17,1.58,2.62,3.21,4.36,4.91,1.74,1.7,3.62,3.46,5.65,5.28,2.03,1.82,3.91,3.75,5.65,5.77,1.74,2.03,3.19,4.19,4.36,6.48,1.17,2.29,1.75,4.75,1.75,7.37,0,2.95-.5,5.57-1.5,7.86-1,2.29-2.44,4.24-4.3,5.84-1.86,1.6-4.11,2.82-6.76,3.65-2.64.84-5.58,1.26-8.81,1.26-2.83,0-5.38-.4-7.68-1.2-2.29-.8-4.33-1.78-6.11-2.95-1.78-1.17-3.31-2.4-4.58-3.72-1.27-1.31-2.25-2.5-2.95-3.56l2.15-1.54c.53.61,1.21,1.28,2.03,2,.82.72,1.73,1.38,2.73,2s2.08,1.12,3.23,1.5c1.15.39,2.31.58,3.5.58,2.95,0,5.36-.71,7.25-2.12,1.88-1.41,2.83-3.51,2.83-6.3,0-1.56-.51-3.16-1.54-4.82-1.02-1.66-2.31-3.37-3.87-5.13-1.56-1.76-3.23-3.58-5.04-5.47-1.8-1.88-3.48-3.83-5.04-5.84-1.56-2.01-2.85-4.07-3.87-6.2-1.02-2.13-1.54-4.34-1.54-6.63,0-2.58.52-4.83,1.57-6.76,1.04-1.92,2.44-3.52,4.18-4.79,1.74-1.27,3.73-2.22,5.96-2.86,2.23-.63,4.54-.95,6.91-.95,2.74,0,5.24.25,7.49.74s4.19,1.24,5.81,2.24c1.62,1,2.86,2.26,3.75,3.78.88,1.52,1.32,3.28,1.32,5.28,0,1.56-.51,2.91-1.54,4.05s-2.46,1.72-4.3,1.72-3.1-.38-4.02-1.14c-.92-.76-1.38-1.79-1.38-3.1,0-.86.21-1.54.64-2.03.43-.49.91-.89,1.44-1.2.53-.31,1.01-.57,1.44-.8.43-.22.64-.52.64-.89,0-1.15-.61-2.06-1.84-2.73s-2.81-1.01-4.73-1.01Z"/>
      <path class="cls-1" d="M355.08,37.1v45.39c0,2.17.41,3.68,1.23,4.51.82.84,1.94,1.26,3.38,1.26,1.11,0,2.09-.31,2.95-.92s1.6-1.31,2.21-2.09c.74-.86,1.37-1.86,1.9-3.01l1.9.86c-.62,1.31-1.34,2.74-2.18,4.3-.84,1.56-1.96,3-3.35,4.33-1.39,1.33-3.14,2.45-5.25,3.35s-4.76,1.35-7.95,1.35c-1.8,0-3.53-.27-5.19-.8-1.66-.53-3.13-1.37-4.42-2.52-1.29-1.15-2.33-2.58-3.1-4.3-.78-1.72-1.17-3.79-1.17-6.2v-45.51h-6.88v-4.42c1.15,0,2.74-.3,4.79-.89s4.15-1.59,6.3-2.98c2.15-1.39,4.15-3.26,5.99-5.59,1.84-2.33,3.15-5.22,3.93-8.66h4.91v18.12h10.01c3.28,0,4.91-.55,4.91-1.66,0-.41-.21-.69-.62-.83-.41-.14-.87-.33-1.38-.55-.51-.22-.97-.54-1.38-.95-.41-.41-.61-1.08-.61-2.03,0-1.15.36-2.05,1.07-2.7s1.65-.98,2.8-.98c.74,0,1.38.15,1.93.46.55.31,1.01.72,1.38,1.23.37.51.65,1.1.83,1.75.18.66.28,1.31.28,1.97,0,2.66-.77,4.78-2.3,6.36-1.54,1.58-4,2.36-7.4,2.36h-9.52Z"/>
      <path class="cls-1" d="M476.87,64.98c0-5.16-.24-9.28-.71-12.38-.47-3.09-1.1-5.45-1.87-7.06-.78-1.62-1.64-2.68-2.58-3.19-.94-.51-1.9-.77-2.89-.77-1.19,0-2.24.32-3.16.95-.92.64-1.72,1.36-2.4,2.18-.67.82-1.25,1.64-1.72,2.46-.47.82-.87,1.43-1.2,1.84v41.03c0,.53-.08,1.18-.25,1.93-.16.76-.56,1.47-1.2,2.15s-1.58,1.25-2.83,1.72c-1.25.47-2.96.71-5.13.71s-3.88-.26-5.13-.77c-1.25-.51-2.2-1.12-2.86-1.81-.66-.7-1.07-1.41-1.23-2.15-.16-.74-.25-1.33-.25-1.78v-47.42c0-1.19-.28-2.22-.83-3.1-.55-.88-1.48-1.32-2.79-1.32-.7,0-1.29.12-1.78.37-.49.25-1.02.59-1.6,1.04l-1.29-1.54c.94-.78,2-1.54,3.16-2.3,1.17-.76,2.42-1.42,3.78-2,1.35-.57,2.81-1.04,4.36-1.41,1.56-.37,3.19-.55,4.91-.55,2.66,0,4.73.44,6.2,1.32,1.47.88,2.56,1.93,3.26,3.16s1.12,2.51,1.26,3.84c.14,1.33.21,2.45.21,3.35,1.51-2.17,3.23-4.12,5.16-5.84.78-.74,1.65-1.45,2.61-2.15.96-.7,1.99-1.32,3.07-1.87,1.08-.55,2.23-.99,3.44-1.32,1.21-.33,2.45-.49,3.72-.49,2.78,0,5.25.53,7.4,1.6,2.15,1.07,3.96,2.85,5.44,5.34s2.6,5.8,3.38,9.92c.78,4.11,1.17,9.22,1.17,15.32s-.53,11.1-1.6,15.48c-1.07,4.38-2.46,8.11-4.18,11.18-1.72,3.07-3.67,5.58-5.84,7.52-2.17,1.94-4.36,3.47-6.57,4.58-2.21,1.11-4.33,1.87-6.36,2.3-2.03.43-3.78.66-5.25.71l-.67-2.52c1.23-.29,2.36-.74,3.41-1.35,1.04-.61,2-1.52,2.86-2.7.86-1.19,1.62-2.69,2.27-4.51.65-1.82,1.22-4.1,1.69-6.85.47-2.74.82-5.99,1.04-9.74s.34-8.12.34-13.11Z"/>
      <path class="cls-1" d="M524.29,67.38c0,1.31.19,2.73.58,4.27.39,1.54.95,3.08,1.69,4.64.74,1.56,1.65,3.04,2.73,4.45,1.08,1.41,2.33,2.67,3.75,3.78s2.98,1.99,4.7,2.64c1.72.66,3.6.98,5.65.98,1.43,0,2.76-.16,3.99-.49,1.23-.33,2.37-.78,3.44-1.35,1.06-.57,2.09-1.24,3.07-2s1.96-1.57,2.95-2.43l1.54,1.47c-.94,1.27-2.15,2.66-3.62,4.18-1.48,1.52-3.26,2.94-5.34,4.27-2.09,1.33-4.52,2.44-7.31,3.32-2.79.88-5.96,1.32-9.52,1.32s-7.03-.64-10.41-1.93c-3.38-1.29-6.38-3.22-9-5.8-2.62-2.58-4.72-5.79-6.3-9.64-1.58-3.85-2.36-8.35-2.36-13.51,0-3.73.47-7.15,1.41-10.26.94-3.11,2.22-5.92,3.84-8.41,1.62-2.5,3.5-4.69,5.65-6.57,2.15-1.88,4.41-3.45,6.79-4.7,2.37-1.25,4.8-2.19,7.28-2.83,2.48-.63,4.86-.95,7.16-.95,3.03,0,5.67.33,7.92.98,2.25.66,4.12,1.54,5.62,2.64,1.49,1.11,2.61,2.39,3.35,3.84.74,1.45,1.1,2.98,1.1,4.58,0,1.93-.55,3.65-1.66,5.19-1.11,1.54-2.58,2.88-4.42,4.02l-24.26,14.31ZM536.64,54.91c.53-.33.97-.64,1.32-.95.35-.31.62-.68.83-1.11.21-.43.36-.96.46-1.6.1-.63.15-1.42.15-2.36,0-1.02-.11-2.16-.34-3.41-.23-1.25-.6-2.43-1.13-3.53-.53-1.11-1.21-2.03-2.03-2.76s-1.8-1.11-2.95-1.11c-1.47,0-2.73.44-3.78,1.32s-1.9,2.02-2.58,3.41c-.68,1.39-1.21,2.98-1.6,4.76-.39,1.78-.69,3.57-.89,5.37-.21,1.8-.33,3.53-.37,5.19-.04,1.66-.06,3.06-.06,4.21l12.96-7.43Z"/>
      <path class="cls-1" d="M431.47,48.7c-2.32,10.16-4.94,20.13-7.84,30.15-.56,1.31-1.16,2.42-2.28,3.25-3.49,2.6-6.96,5.08-10.66,7.41-6.78,4.27-14.47,7.85-22.6,7.99-.75.01-1.57-.61-2.03-1.27-4.62-6.77-8.66-13.87-11.81-21.46-.74-1.79-1.36-3.8-1.02-5.73l4.42-24.6c.32-1.76.92-3.02,2.24-4.2l13.43-11.98c.72-.65,1.49-1.13,2.51-1.08l21.11,1.16c1.69.09,3.29,1.75,4.19,3.07l9.83,14.47c.56.83.72,1.84.5,2.81ZM401.62,34.5c1.55-.18,3.62,1.05,4.85,1.95,4.77,3.48,10.71,4.84,16.62,3.66-1.35-4.86-6.84-7.12-11.36-7.56-4.2-.41-8.52.05-12.36-.62-1.27-.22-2.43-.19-3.61.41-1.01.51-1.94,1.14-2.83,1.92l-9.73,8.5c-.96.84-1.24,2.1-.61,3.32,2.31,4.52,4.37,9.15,5.6,14.1.17.69,0,1.4-.72,1.71l-6.45-13.91c-.06-.14-.46-.31-.57-.22-.08.08-.3.31-.32.41l-2.04,8.72c-1.68,7.17-2.55,12.49-.03,19.6,2.01,5.46,5.05,10.12,8.56,14.92l3.23-17.63c.23-1.23.34-2.38.3-3.6-.09-2.76-2.51-4.08-1.13-5.26.22-.19.94-.35,1.08-.06.54,1.09,1.57,1.76,2.71,1.21,1-.48,1.59-1.32,2.2-2.27l13.03-20.24c.44-.69.33-1.57.01-2.24-1.55-3.33-5.95-3.3-6.46-6.81ZM419.12,77.78l-4.13-3.92c-1.61-1.52-3.08-3.08-4.04-5.08-.87-2.07-1.1-4.18-1.25-6.41l-.99-14.81c-4.38,8.3-9.25,15.99-14.85,23.39-1.26,1.67-1.68,3.64-1.88,5.66l-1.91,13.91c-.11.82.53,1.35,1.27,1.44,5.49.66,10.59-1.94,15.15-4.81l12.66-7.98c.47-.29.36-1.01-.03-1.38ZM427.56,53.99c.91-3.24,1.27-7.56-1-10.15-.69-.79-1.83-1.65-2.92-1.41-3.26.71-6.44,1.06-9.78.71-.76-.08-1.61.03-2.31.22-1.03.28-1.5,1.1-1.55,2.17l2.31,17.05c.24,1.79.48,3.46,1.24,5.08,1.36,2.88,4.52,5.09,7.2,6.77.16.1.61.11.77.05.14-.05.38-.36.44-.54l5.6-19.94Z"/>
    </g>
  </g>
</svg>